<?xml version="1.0" encoding="UTF-8"?>
<svg xmlns="http://www.w3.org/2000/svg" width="20pt" height="20pt" viewBox="0 0 20 20" version="1.1">
    <g id="surface1">
        <path style=" stroke:none;fill-rule:nonzero;fill:rgb(16.862745%,74.117647%,76.862745%);fill-opacity:1;"
              d="M 19.09375 16.273438 C 19.859375 17.039062 19.859375 18.273438 19.09375 19.035156 C 18.328125 19.800781 17.089844 19.800781 16.324219 19.035156 L 11.09375 13.363281 L 13.398438 11.0625 Z M 19.09375 16.273438 "/>
        <path style=" stroke:none;fill-rule:nonzero;fill:rgb(28.627451%,36.470588%,52.156863%);fill-opacity:1;"
              d="M 12.246094 10.003906 L 13.398438 11.0625 L 11.09375 13.363281 L 10.03125 12.214844 Z M 12.246094 10.003906 "/>
        <path style=" stroke:none;fill-rule:nonzero;fill:rgb(91.372549%,93.333333%,94.117647%);fill-opacity:1;"
              d="M 19.484375 2.785156 L 17.746094 4.53125 L 16.636719 4.53125 L 15.558594 3.414062 L 15.558594 2.308594 L 17.269531 0.574219 C 16.917969 0.457031 16.539062 0.390625 16.144531 0.390625 C 13.734375 0.390625 12.039062 2.757812 12.804688 5.027344 L 9.480469 8.347656 L 9.476562 8.347656 L 4.285156 3.152344 L 4.285156 2.046875 L 1.519531 0.390625 L 0.410156 1.496094 L 2.070312 4.257812 L 3.179688 4.257812 L 8.371094 9.449219 L 8.371094 9.453125 L 5.058594 12.761719 C 2.785156 11.996094 0.410156 13.683594 0.410156 16.09375 C 0.410156 16.484375 0.476562 16.863281 0.59375 17.214844 L 2.332031 15.46875 L 3.4375 15.46875 L 4.558594 16.585938 L 4.558594 17.691406 L 2.808594 19.425781 C 3.160156 19.542969 3.539062 19.609375 3.933594 19.609375 C 6.347656 19.609375 8.039062 17.238281 7.273438 14.96875 C 8.878906 13.367188 13.421875 8.832031 15.019531 7.238281 C 15.371094 7.355469 15.75 7.421875 16.144531 7.421875 C 18.089844 7.421875 19.667969 5.847656 19.667969 3.90625 C 19.667969 3.511719 19.601562 3.136719 19.484375 2.785156 Z M 19.484375 2.785156 "/>
        <path style=" stroke:none;fill-rule:nonzero;fill:rgb(0%,0%,0%);fill-opacity:1;"
              d="M 13.59375 6.058594 C 13.378906 6.058594 13.203125 6.234375 13.203125 6.449219 C 13.203125 6.667969 13.378906 6.839844 13.59375 6.839844 C 13.8125 6.839844 13.984375 6.667969 13.984375 6.449219 C 13.984375 6.234375 13.8125 6.058594 13.59375 6.058594 Z M 13.59375 6.058594 "/>
        <path style=" stroke:none;fill-rule:nonzero;fill:rgb(0%,0%,0%);fill-opacity:1;"
              d="M 6.484375 13.15625 C 6.265625 13.15625 6.089844 13.332031 6.089844 13.546875 C 6.089844 13.765625 6.265625 13.9375 6.484375 13.9375 C 6.699219 13.9375 6.875 13.765625 6.875 13.546875 C 6.875 13.332031 6.699219 13.15625 6.484375 13.15625 Z M 6.484375 13.15625 "/>
        <path style=" stroke:none;fill-rule:nonzero;fill:rgb(0%,0%,0%);fill-opacity:1;"
              d="M 19.570312 2.402344 C 19.441406 2.371094 19.300781 2.414062 19.207031 2.507812 L 17.582031 4.140625 L 16.804688 4.140625 L 15.949219 3.253906 L 15.949219 2.46875 L 17.546875 0.847656 C 17.644531 0.753906 17.679688 0.613281 17.648438 0.484375 C 17.617188 0.351562 17.523438 0.246094 17.394531 0.203125 C 16.992188 0.0703125 16.570312 0 16.144531 0 C 14.871094 0 13.710938 0.59375 12.96875 1.628906 C 12.269531 2.597656 12.054688 3.78125 12.363281 4.917969 L 9.480469 7.796875 L 4.675781 2.992188 L 4.675781 2.046875 C 4.675781 1.910156 4.605469 1.785156 4.488281 1.714844 L 1.71875 0.0546875 C 1.566406 -0.0351562 1.367188 -0.0117188 1.242188 0.113281 L 0.132812 1.21875 C 0.0078125 1.347656 -0.015625 1.542969 0.0742188 1.695312 L 1.734375 4.457031 C 1.808594 4.574219 1.933594 4.648438 2.070312 4.648438 L 3.015625 4.648438 L 7.820312 9.453125 L 4.949219 12.320312 C 3.808594 12.011719 2.621094 12.226562 1.648438 12.921875 C 0.613281 13.664062 0.0195312 14.820312 0.0195312 16.09375 C 0.0195312 16.519531 0.0898438 16.941406 0.222656 17.339844 C 0.265625 17.46875 0.375 17.566406 0.507812 17.597656 C 0.636719 17.628906 0.777344 17.585938 0.871094 17.492188 L 2.496094 15.859375 L 3.277344 15.859375 L 4.167969 16.75 L 4.167969 17.527344 L 2.53125 19.148438 C 2.4375 19.242188 2.398438 19.382812 2.425781 19.515625 C 2.457031 19.644531 2.554688 19.753906 2.683594 19.796875 C 3.085938 19.929688 3.503906 20 3.933594 20 C 5.207031 20 6.367188 19.40625 7.109375 18.371094 C 7.808594 17.402344 8.023438 16.21875 7.714844 15.082031 L 10.019531 12.777344 L 10.550781 13.351562 L 10.308594 13.59375 C 10.15625 13.746094 10.15625 13.992188 10.308594 14.144531 C 10.460938 14.296875 10.707031 14.296875 10.859375 14.144531 L 11.082031 13.925781 L 16.039062 19.300781 C 16.042969 19.304688 16.046875 19.308594 16.050781 19.3125 C 16.964844 20.230469 18.453125 20.230469 19.371094 19.3125 C 20.285156 18.398438 20.285156 16.914062 19.371094 16 C 19.367188 15.996094 19.363281 15.992188 19.359375 15.988281 L 13.964844 11.046875 L 14.183594 10.832031 C 14.335938 10.679688 14.335938 10.433594 14.183594 10.28125 C 14.027344 10.125 13.78125 10.125 13.628906 10.28125 L 13.386719 10.519531 L 12.8125 9.992188 L 15.128906 7.679688 C 15.460938 7.769531 15.800781 7.8125 16.144531 7.8125 C 18.300781 7.8125 20.058594 6.058594 20.058594 3.90625 C 20.058594 3.480469 19.988281 3.058594 19.855469 2.660156 C 19.8125 2.53125 19.703125 2.433594 19.570312 2.402344 Z M 3.457031 3.980469 C 3.382812 3.910156 3.28125 3.871094 3.179688 3.871094 L 2.292969 3.871094 L 0.902344 1.554688 L 1.578125 0.882812 L 3.894531 2.269531 L 3.894531 3.152344 C 3.894531 3.257812 3.933594 3.355469 4.007812 3.429688 L 8.925781 8.347656 L 8.371094 8.902344 Z M 13.410156 11.601562 L 18.824219 16.554688 C 19.425781 17.167969 19.425781 18.152344 18.816406 18.761719 C 18.207031 19.371094 17.21875 19.371094 16.609375 18.765625 L 11.632812 13.375 Z M 12.832031 11.074219 L 11.105469 12.800781 L 10.574219 12.226562 L 12.257812 10.546875 Z M 16.144531 7.03125 C 15.800781 7.03125 15.464844 6.976562 15.144531 6.867188 C 15.003906 6.820312 14.847656 6.859375 14.742188 6.960938 C 12.78125 8.921875 8.550781 13.140625 6.996094 14.695312 C 6.890625 14.800781 6.855469 14.953125 6.902344 15.09375 C 7.226562 16.058594 7.070312 17.085938 6.472656 17.917969 C 5.878906 18.742188 4.953125 19.21875 3.933594 19.21875 C 3.820312 19.21875 3.703125 19.210938 3.59375 19.199219 L 4.835938 17.96875 C 4.910156 17.894531 4.949219 17.796875 4.949219 17.691406 L 4.949219 16.585938 C 4.949219 16.484375 4.910156 16.382812 4.835938 16.308594 L 3.714844 15.191406 C 3.640625 15.117188 3.542969 15.078125 3.4375 15.078125 L 2.332031 15.078125 C 2.226562 15.078125 2.128906 15.121094 2.054688 15.191406 L 0.820312 16.433594 C 0.808594 16.320312 0.800781 16.207031 0.800781 16.09375 C 0.800781 15.074219 1.277344 14.152344 2.105469 13.558594 C 2.9375 12.960938 3.96875 12.804688 4.933594 13.132812 C 5.074219 13.179688 5.230469 13.140625 5.335938 13.039062 C 5.355469 13.015625 13.078125 5.3125 13.082031 5.304688 C 13.1875 5.199219 13.222656 5.046875 13.175781 4.90625 C 12.851562 3.941406 13.007812 2.914062 13.601562 2.082031 C 14.199219 1.253906 15.125 0.78125 16.144531 0.78125 C 16.261719 0.78125 16.378906 0.789062 16.496094 0.800781 L 15.277344 2.035156 C 15.207031 2.105469 15.164062 2.207031 15.164062 2.308594 L 15.164062 3.414062 C 15.164062 3.515625 15.207031 3.609375 15.277344 3.683594 L 16.355469 4.800781 C 16.429688 4.878906 16.53125 4.921875 16.636719 4.921875 L 17.746094 4.921875 C 17.851562 4.921875 17.949219 4.878906 18.023438 4.804688 L 19.257812 3.566406 C 19.269531 3.679688 19.273438 3.792969 19.273438 3.90625 C 19.273438 5.628906 17.871094 7.03125 16.144531 7.03125 Z M 16.144531 7.03125 "/>
        <path style=" stroke:none;fill-rule:nonzero;fill:rgb(0%,0%,0%);fill-opacity:1;"
              d="M 12.210938 7.28125 L 7.3125 12.167969 C 7.160156 12.320312 7.160156 12.566406 7.3125 12.71875 C 7.464844 12.871094 7.714844 12.871094 7.867188 12.71875 L 12.765625 7.832031 C 12.917969 7.679688 12.917969 7.433594 12.765625 7.28125 C 12.613281 7.125 12.363281 7.125 12.210938 7.28125 Z M 12.210938 7.28125 "/>
        <path style=" stroke:none;fill-rule:nonzero;fill:rgb(0%,0%,0%);fill-opacity:1;"
              d="M 17.15625 17.65625 C 17.308594 17.808594 17.558594 17.808594 17.710938 17.65625 C 17.863281 17.503906 17.863281 17.253906 17.710938 17.101562 L 14.179688 13.59375 C 14.027344 13.441406 13.78125 13.441406 13.628906 13.59375 C 13.476562 13.746094 13.476562 13.996094 13.628906 14.148438 Z M 17.15625 17.65625 "/>
    </g>
</svg>
