<?xml version="1.0" encoding="UTF-8"?>
<svg xmlns="http://www.w3.org/2000/svg" width="40pt" height="40pt" viewBox="0 0 40 40" version="1.1">
    <g id="surface1">
        <path style=" stroke:none;fill-rule:nonzero;fill:rgb(0%,0%,0%);fill-opacity:1;"
              d="M 33.75 18.75 L 8.8125 18.75 L 18.363281 9.65625 C 18.863281 9.179688 18.882812 8.386719 18.40625 7.886719 C 17.929688 7.386719 17.136719 7.367188 16.636719 7.84375 L 5.734375 18.230469 C 5.261719 18.703125 5 19.332031 5 20 C 5 20.667969 5.261719 21.296875 5.753906 21.789062 L 16.636719 32.15625 C 16.878906 32.386719 17.191406 32.5 17.5 32.5 C 17.828125 32.5 18.160156 32.371094 18.40625 32.113281 C 18.882812 31.613281 18.863281 30.820312 18.363281 30.34375 L 8.773438 21.25 L 33.75 21.25 C 34.441406 21.25 35 20.691406 35 20 C 35 19.308594 34.441406 18.75 33.75 18.75 Z M 33.75 18.75 "/>
    </g>
</svg>
