<?xml version="1.0" encoding="UTF-8"?>
<svg xmlns="http://www.w3.org/2000/svg" width="20pt" height="20pt" viewBox="0 0 20 20" version="1.1">
    <g id="surface1">
        <path style=" stroke:none;fill-rule:nonzero;fill:rgb(0%,0%,0%);fill-opacity:1;"
              d="M 18.679688 6.375 L 16.851562 3.214844 C 16.648438 2.84375 16.191406 2.675781 15.773438 2.824219 L 13.707031 3.65625 C 13.3125 3.371094 12.898438 3.132812 12.472656 2.941406 L 12.160156 0.75 C 12.109375 0.324219 11.734375 0 11.296875 0 L 7.632812 0 C 7.191406 0 6.820312 0.324219 6.769531 0.742188 L 6.453125 2.941406 C 6.039062 3.128906 5.636719 3.363281 5.226562 3.65625 L 3.152344 2.824219 C 2.746094 2.667969 2.285156 2.832031 2.082031 3.207031 L 0.25 6.375 C 0.03125 6.746094 0.121094 7.230469 0.460938 7.5 L 2.210938 8.867188 C 2.1875 9.132812 2.171875 9.363281 2.171875 9.582031 C 2.171875 9.800781 2.1875 10.035156 2.214844 10.296875 L 0.460938 11.667969 C 0.125 11.929688 0.0351562 12.398438 0.246094 12.789062 L 2.074219 15.953125 C 2.28125 16.324219 2.734375 16.492188 3.15625 16.339844 L 5.222656 15.511719 C 5.617188 15.792969 6.027344 16.035156 6.453125 16.226562 L 6.769531 18.417969 C 6.820312 18.84375 7.195312 19.167969 7.632812 19.167969 L 10.503906 19.167969 C 10.660156 19.167969 10.800781 19.078125 10.871094 18.945312 C 10.941406 18.808594 10.933594 18.640625 10.84375 18.515625 C 10.207031 17.601562 9.867188 16.53125 9.867188 15.417969 C 9.867188 14.902344 9.945312 14.382812 10.09375 13.875 C 10.132812 13.746094 10.105469 13.605469 10.023438 13.5 C 9.9375 13.394531 9.808594 13.335938 9.671875 13.339844 C 9.628906 13.34375 9.582031 13.347656 9.46875 13.363281 C 7.398438 13.363281 5.710938 11.675781 5.710938 9.605469 C 5.710938 7.53125 7.398438 5.847656 9.46875 5.847656 C 11.542969 5.847656 13.226562 7.53125 13.222656 9.671875 C 13.214844 9.71875 13.210938 9.761719 13.207031 9.804688 C 13.199219 9.941406 13.257812 10.070312 13.363281 10.15625 C 13.472656 10.238281 13.613281 10.265625 13.742188 10.226562 C 14.550781 9.988281 15.351562 9.929688 16.257812 10.09375 C 16.367188 10.113281 16.488281 10.0625 16.582031 9.992188 C 16.675781 9.925781 16.738281 9.796875 16.75 9.679688 C 16.75 9.667969 16.753906 9.597656 16.753906 9.585938 C 16.753906 9.324219 16.738281 9.078125 16.714844 8.871094 L 18.46875 7.5 C 18.800781 7.238281 18.894531 6.769531 18.679688 6.375 Z M 16.019531 8.355469 C 15.90625 8.445312 15.84375 8.589844 15.863281 8.738281 C 15.882812 8.875 15.898438 9.035156 15.910156 9.199219 C 15.273438 9.132812 14.664062 9.167969 14.054688 9.289062 C 13.894531 6.902344 11.898438 5.011719 9.472656 5.011719 C 6.941406 5.011719 4.882812 7.070312 4.882812 9.601562 C 4.882812 12.03125 6.773438 14.023438 9.160156 14.183594 C 9.078125 14.589844 9.039062 15.003906 9.039062 15.417969 C 9.039062 16.4375 9.285156 17.433594 9.757812 18.328125 L 7.59375 18.308594 L 7.246094 15.878906 C 7.226562 15.730469 7.128906 15.605469 6.992188 15.550781 C 6.484375 15.34375 5.996094 15.058594 5.539062 14.707031 C 5.464844 14.648438 5.375 14.621094 5.285156 14.621094 C 5.230469 14.621094 5.179688 14.628906 5.128906 14.652344 L 2.804688 15.542969 L 0.976562 12.324219 L 2.910156 10.808594 C 3.023438 10.71875 3.085938 10.574219 3.066406 10.429688 C 3.023438 10.097656 3.007812 9.828125 3.007812 9.582031 C 3.007812 9.335938 3.023438 9.066406 3.066406 8.738281 C 3.085938 8.589844 3.023438 8.445312 2.910156 8.355469 L 0.96875 6.792969 L 2.847656 3.597656 L 5.128906 4.515625 C 5.265625 4.570312 5.417969 4.550781 5.535156 4.460938 C 6.027344 4.09375 6.503906 3.816406 6.992188 3.617188 C 7.128906 3.558594 7.226562 3.4375 7.246094 3.289062 L 7.632812 0.832031 L 11.332031 0.859375 L 11.683594 3.289062 C 11.703125 3.4375 11.800781 3.5625 11.9375 3.617188 C 12.445312 3.824219 12.933594 4.109375 13.390625 4.460938 C 13.507812 4.550781 13.660156 4.570312 13.800781 4.515625 L 16.125 3.625 L 17.953125 6.84375 Z M 16.019531 8.355469 "/>
        <path style=" stroke:none;fill-rule:nonzero;fill:rgb(0%,0%,0%);fill-opacity:1;"
              d="M 19.441406 14.066406 C 19.128906 12.816406 17.722656 10.832031 15.285156 10.832031 C 12.757812 10.832031 10.703125 12.890625 10.703125 15.417969 C 10.703125 17.945312 12.757812 20 15.285156 20 C 15.515625 20 15.703125 19.8125 15.703125 19.582031 C 15.703125 19.351562 15.515625 19.167969 15.285156 19.167969 C 13.21875 19.167969 11.535156 17.484375 11.535156 15.417969 C 11.535156 13.347656 13.21875 11.667969 15.285156 11.667969 C 17.324219 11.667969 18.421875 13.417969 18.632812 14.265625 C 18.6875 14.492188 18.914062 14.625 19.136719 14.570312 C 19.359375 14.515625 19.496094 14.289062 19.441406 14.066406 Z M 19.441406 14.066406 "/>
        <path style=" stroke:none;fill-rule:nonzero;fill:rgb(0%,0%,0%);fill-opacity:1;"
              d="M 19.453125 11.667969 C 19.222656 11.667969 19.035156 11.851562 19.035156 12.082031 L 19.035156 14.167969 L 16.953125 14.167969 C 16.722656 14.167969 16.535156 14.351562 16.535156 14.582031 C 16.535156 14.8125 16.722656 15 16.953125 15 L 19.453125 15 C 19.683594 15 19.871094 14.8125 19.871094 14.582031 L 19.871094 12.082031 C 19.871094 11.851562 19.683594 11.667969 19.453125 11.667969 Z M 19.453125 11.667969 "/>
    </g>
</svg>
