<?xml version="1.0" encoding="UTF-8"?>
<svg xmlns="http://www.w3.org/2000/svg" width="16pt" height="15pt" viewBox="0 0 16 15" version="1.1">
    <g id="surface1">
        <path style="fill-rule:nonzero;fill:rgb(72.156863%,1.568627%,1.568627%);fill-opacity:1;stroke-width:1;stroke-linecap:butt;stroke-linejoin:miter;stroke:rgb(100%,100%,100%);stroke-opacity:1;stroke-miterlimit:4;"
              d="M 321.759033 37.954948 L 238.37207 37.954948 L 238.37207 0 L 125.134521 0 L 125.134521 37.954948 L 41.747559 37.954948 L 41.747559 97.944531 L 321.759033 97.944531 Z M 155.201416 29.994792 L 208.41333 29.994792 L 208.41333 37.954948 L 155.201416 37.954948 Z M 155.201416 29.994792 "
              transform="matrix(0.0361174,0,0,0.03386,0,0)"/>
        <path style="fill-rule:nonzero;fill:rgb(72.156863%,1.568627%,1.568627%);fill-opacity:1;stroke-width:1;stroke-linecap:butt;stroke-linejoin:miter;stroke:rgb(100%,100%,100%);stroke-opacity:1;stroke-miterlimit:4;"
              d="M 295.153076 214.347396 L 300.7771 128.054688 L 62.729492 128.054688 L 81.764648 417.965885 L 195.975586 417.965885 C 181.050293 396.969531 172.397949 371.243229 172.397949 343.555729 C 172.397949 274.452344 226.799561 217.808333 295.153076 214.347396 Z M 295.153076 214.347396 "
              transform="matrix(0.0361174,0,0,0.03386,0,0)"/>
        <path style="fill-rule:nonzero;fill:rgb(72.156863%,1.568627%,1.568627%);fill-opacity:1;stroke-width:1;stroke-linecap:butt;stroke-linejoin:miter;stroke:rgb(100%,100%,100%);stroke-opacity:1;stroke-miterlimit:4;"
              d="M 301.750488 244.111458 C 246.91626 244.111458 202.356689 288.757552 202.356689 343.555729 C 202.356689 398.353906 246.91626 443 301.750488 443 C 356.584717 443 401.252441 398.353906 401.252441 343.555729 C 401.252441 288.757552 356.584717 244.111458 301.750488 244.111458 Z M 355.935791 376.55 L 334.737549 397.777083 L 301.750488 364.782812 L 268.871582 397.777083 L 247.565186 376.55 L 280.552246 343.555729 L 247.565186 310.561458 L 268.871582 289.44974 L 301.750488 322.328646 L 334.737549 289.44974 L 355.935791 310.561458 L 322.94873 343.555729 Z M 355.935791 376.55 "
              transform="matrix(0.0361174,0,0,0.03386,0,0)"/>
    </g>
</svg>
