<?xml version="1.0" encoding="UTF-8"?>
<svg xmlns="http://www.w3.org/2000/svg" width="20pt" height="20pt" viewBox="0 0 20 20" version="1.1">
    <g id="surface1">
        <path style=" stroke:none;fill-rule:nonzero;fill:rgb(97.254902%,92.54902%,49.019608%);fill-opacity:1;"
              d="M 14.832031 10.511719 C 15.101562 10.886719 15.703125 11.710938 16.257812 12.269531 C 16.800781 12.808594 17.535156 13.332031 17.886719 13.574219 C 17.941406 13.609375 17.976562 13.667969 17.988281 13.730469 C 18 13.796875 17.980469 13.863281 17.941406 13.914062 L 15.855469 16.597656 C 15.777344 16.699219 15.632812 16.71875 15.527344 16.644531 C 15.003906 16.257812 14.5 15.84375 14.023438 15.402344 L 11.429688 17.996094 L 11.535156 18.640625 L 10.800781 18.625 L 10.855469 19.320312 L 10.179688 19.246094 L 9.671875 19.757812 L 8.820312 19.585938 L 8.648438 18.734375 L 13.003906 14.382812 C 12.847656 14.214844 12.695312 14.042969 12.546875 13.871094 C 12.273438 13.550781 12.011719 13.21875 11.761719 12.878906 C 11.6875 12.773438 11.707031 12.628906 11.808594 12.550781 L 14.496094 10.460938 C 14.546875 10.421875 14.613281 10.40625 14.675781 10.414062 C 14.738281 10.421875 14.796875 10.457031 14.832031 10.511719 Z M 16.039062 14.546875 L 16.515625 13.933594 L 16 13.484375 C 15.617188 13.148438 15.257812 12.789062 14.921875 12.40625 L 14.472656 11.890625 L 13.859375 12.367188 L 14.609375 13.796875 Z M 16.039062 14.546875 "/>
        <path style=" stroke:none;fill-rule:nonzero;fill:rgb(100%,78.823529%,64.313725%);fill-opacity:1;"
              d="M 6.457031 4.375 C 8.75 6.417969 12.167969 6.289062 12.167969 6.289062 L 12.167969 6.277344 C 12.492188 6.304688 12.761719 6.539062 12.839844 6.855469 C 12.90625 7.125 12.855469 7.410156 12.707031 7.644531 C 12.554688 7.875 12.3125 8.035156 12.039062 8.085938 L 12.039062 8.089844 L 11.832031 8.804688 C 11.5 10.566406 9.960938 11.839844 8.167969 11.839844 C 6.375 11.839844 4.835938 10.566406 4.503906 8.804688 L 4.296875 8.089844 L 4.296875 8.085938 C 4.023438 8.035156 3.78125 7.875 3.628906 7.644531 C 3.476562 7.410156 3.429688 7.125 3.496094 6.855469 C 3.570312 6.535156 3.84375 6.304688 4.167969 6.277344 L 4.167969 6.300781 C 4.25 6.351562 4.34375 6.375 4.441406 6.375 C 4.726562 6.375 4.964844 6.152344 4.976562 5.863281 L 5.042969 4.414062 C 5.515625 4.429688 5.988281 4.414062 6.457031 4.375 Z M 6.457031 4.375 "/>
        <path style=" stroke:none;fill-rule:nonzero;fill:rgb(89.411765%,55.686275%,40%);fill-opacity:1;"
              d="M 8.605469 4.015625 C 7.902344 4.203125 7.183594 4.324219 6.457031 4.375 C 5.988281 4.414062 5.515625 4.429688 5.042969 4.414062 L 4.976562 5.863281 C 4.964844 6.152344 4.726562 6.375 4.441406 6.375 C 4.34375 6.375 4.25 6.351562 4.167969 6.300781 L 4.167969 4.242188 C 4.167969 2.035156 5.960938 0.242188 8.167969 0.242188 C 10.378906 0.242188 12.167969 2.035156 12.167969 4.242188 L 12.167969 5.625 C 9.734375 5.46875 8.605469 4.015625 8.605469 4.015625 Z M 8.605469 4.015625 "/>
        <path style=" stroke:none;fill-rule:nonzero;fill:rgb(43.529412%,89.019608%,100%);fill-opacity:1;"
              d="M 9.949219 13.003906 L 12.546875 13.871094 C 12.695312 14.042969 12.847656 14.214844 13.003906 14.382812 L 9.46875 17.914062 L 1.992188 17.914062 L 1.992188 15.90625 C 1.992188 15.753906 2.007812 15.605469 2.039062 15.457031 C 2.046875 15.429688 2.050781 15.40625 2.058594 15.378906 C 2.246094 14.703125 2.777344 14.171875 3.441406 13.957031 L 6.382812 13.003906 C 7.496094 13.605469 8.839844 13.605469 9.949219 13.003906 Z M 9.949219 13.003906 "/>
        <path style=" stroke:none;fill-rule:nonzero;fill:rgb(93.72549%,74.117647%,61.176471%);fill-opacity:1;"
              d="M 6.386719 11.390625 C 7.496094 11.992188 8.835938 11.992188 9.945312 11.390625 L 9.945312 13.003906 L 9.949219 13.003906 C 8.839844 13.605469 7.496094 13.605469 6.382812 13.003906 L 6.386719 13.003906 Z M 6.386719 11.390625 "/>
        <path style=" stroke:none;fill-rule:nonzero;fill:rgb(80%,45.098039%,31.372549%);fill-opacity:1;"
              d="M 8.605469 4.015625 C 8.605469 4.015625 9.734375 5.46875 12.167969 5.625 L 12.167969 6.289062 C 12.167969 6.289062 8.75 6.417969 6.457031 4.375 C 7.183594 4.324219 7.902344 4.203125 8.605469 4.015625 Z M 8.605469 4.015625 "/>
        <path style=" stroke:none;fill-rule:nonzero;fill:rgb(38.823529%,19.215686%,42.745098%);fill-opacity:1;"
              d="M 18.027344 13.371094 C 17.726562 13.167969 16.972656 12.636719 16.429688 12.097656 C 15.878906 11.542969 15.269531 10.703125 15.03125 10.371094 C 14.957031 10.261719 14.839844 10.191406 14.710938 10.171875 C 14.582031 10.152344 14.449219 10.1875 14.347656 10.269531 L 11.660156 12.359375 C 11.453125 12.519531 11.410156 12.8125 11.566406 13.023438 C 11.652344 13.140625 11.742188 13.257812 11.832031 13.375 L 10.191406 12.828125 L 10.191406 11.53125 C 11.171875 10.953125 11.855469 9.980469 12.066406 8.859375 L 12.234375 8.285156 C 12.863281 8.089844 13.234375 7.4375 13.078125 6.796875 C 12.996094 6.457031 12.742188 6.1875 12.414062 6.082031 L 12.414062 4.242188 C 12.414062 1.898438 10.511719 0 8.167969 0 C 5.824219 0 3.925781 1.898438 3.925781 4.242188 L 3.925781 6.082031 C 3.59375 6.1875 3.339844 6.457031 3.257812 6.796875 C 3.234375 6.894531 3.222656 6.992188 3.222656 7.09375 C 3.222656 7.640625 3.578125 8.125 4.101562 8.289062 L 4.265625 8.859375 C 4.480469 9.980469 5.164062 10.953125 6.144531 11.53125 L 6.144531 12.824219 L 3.367188 13.726562 C 2.605469 13.972656 2.03125 14.566406 1.824219 15.3125 C 1.816406 15.339844 1.808594 15.371094 1.800781 15.402344 C 1.765625 15.566406 1.746094 15.738281 1.75 15.90625 L 1.75 17.914062 C 1.75 18.050781 1.855469 18.160156 1.992188 18.160156 L 8.878906 18.160156 L 8.476562 18.5625 C 8.417969 18.621094 8.394531 18.703125 8.410156 18.78125 L 8.582031 19.632812 C 8.601562 19.730469 8.675781 19.804688 8.773438 19.824219 L 9.621094 19.996094 C 9.703125 20.011719 9.785156 19.984375 9.84375 19.929688 L 10.269531 19.503906 L 10.828125 19.5625 C 10.902344 19.570312 10.972656 19.546875 11.027344 19.496094 C 11.078125 19.445312 11.105469 19.375 11.097656 19.300781 L 11.066406 18.875 L 11.53125 18.882812 C 11.605469 18.886719 11.671875 18.855469 11.71875 18.800781 C 11.769531 18.746094 11.789062 18.671875 11.777344 18.601562 L 11.691406 18.082031 L 14.03125 15.742188 C 14.464844 16.128906 14.917969 16.496094 15.382812 16.839844 C 15.59375 16.996094 15.886719 16.953125 16.046875 16.746094 L 18.132812 14.0625 C 18.214844 13.957031 18.25 13.824219 18.230469 13.695312 C 18.210938 13.5625 18.136719 13.445312 18.027344 13.371094 Z M 6.632812 11.777344 C 7.613281 12.1875 8.71875 12.1875 9.703125 11.777344 L 9.703125 12.855469 C 8.734375 13.332031 7.601562 13.332031 6.632812 12.855469 Z M 8.523438 4.289062 C 8.855469 4.648438 9.949219 5.652344 11.925781 5.847656 L 11.925781 6.042969 C 11.191406 6.027344 8.878906 5.871094 7.074219 4.558594 C 7.5625 4.5 8.046875 4.410156 8.523438 4.289062 Z M 4.414062 4.242188 C 4.414062 2.167969 6.09375 0.488281 8.167969 0.488281 C 10.242188 0.488281 11.925781 2.167969 11.925781 4.242188 L 11.925781 5.359375 C 10.429688 5.195312 9.484375 4.519531 9.0625 4.136719 C 9.8125 3.894531 10.449219 3.574219 10.957031 3.183594 C 11.027344 3.132812 11.066406 3.042969 11.054688 2.957031 C 11.042969 2.871094 10.988281 2.792969 10.90625 2.761719 C 10.824219 2.726562 10.730469 2.742188 10.660156 2.796875 C 10.117188 3.214844 9.402344 3.546875 8.542969 3.78125 C 7.851562 3.964844 7.148438 4.082031 6.4375 4.132812 C 5.976562 4.171875 5.515625 4.183594 5.054688 4.167969 C 4.988281 4.164062 4.925781 4.1875 4.878906 4.230469 C 4.832031 4.273438 4.800781 4.335938 4.796875 4.402344 L 4.734375 5.851562 C 4.730469 5.933594 4.691406 6.007812 4.632812 6.0625 C 4.570312 6.113281 4.492188 6.140625 4.414062 6.132812 Z M 4.742188 8.757812 C 4.742188 8.75 4.742188 8.742188 4.738281 8.734375 L 4.539062 8.042969 C 4.519531 7.941406 4.441406 7.863281 4.339844 7.84375 C 3.976562 7.78125 3.710938 7.464844 3.710938 7.09375 C 3.710938 7.03125 3.71875 6.972656 3.730469 6.914062 C 3.773438 6.730469 3.914062 6.585938 4.09375 6.539062 C 4.332031 6.65625 4.609375 6.648438 4.835938 6.511719 C 5.066406 6.378906 5.207031 6.140625 5.21875 5.875 L 5.273438 4.664062 C 5.507812 4.664062 5.894531 4.660156 6.375 4.625 C 7.585938 5.671875 9.078125 6.132812 10.125 6.335938 C 11.28125 6.5625 12.140625 6.53125 12.179688 6.53125 C 12.183594 6.53125 12.191406 6.53125 12.199219 6.53125 C 12.398438 6.5625 12.558594 6.714844 12.601562 6.914062 C 12.617188 6.972656 12.625 7.035156 12.625 7.09375 C 12.625 7.464844 12.359375 7.777344 11.996094 7.84375 C 11.894531 7.863281 11.8125 7.941406 11.796875 8.042969 L 11.597656 8.734375 C 11.59375 8.742188 11.59375 8.75 11.589844 8.757812 C 11.386719 9.851562 10.667969 10.78125 9.664062 11.261719 C 8.65625 11.738281 7.484375 11.707031 6.503906 11.175781 C 5.585938 10.675781 4.9375 9.789062 4.742188 8.757812 Z M 2.234375 17.671875 L 2.234375 15.90625 C 2.234375 15.773438 2.25 15.644531 2.277344 15.515625 C 2.28125 15.492188 2.289062 15.46875 2.296875 15.441406 C 2.457031 14.855469 2.914062 14.386719 3.519531 14.1875 L 6.363281 13.265625 C 7.496094 13.84375 8.839844 13.84375 9.972656 13.269531 L 12.40625 14.078125 C 12.492188 14.175781 12.578125 14.273438 12.664062 14.375 L 9.367188 17.671875 Z M 15.667969 16.441406 C 15.152344 16.0625 14.660156 15.65625 14.1875 15.222656 C 14.09375 15.136719 13.945312 15.140625 13.851562 15.230469 L 11.257812 17.824219 C 11.203125 17.878906 11.175781 17.957031 11.191406 18.035156 L 11.246094 18.390625 L 10.804688 18.382812 C 10.734375 18.382812 10.671875 18.410156 10.621094 18.460938 C 10.574219 18.507812 10.550781 18.578125 10.558594 18.644531 L 10.589844 19.046875 L 10.207031 19.003906 C 10.132812 18.996094 10.058594 19.023438 10.007812 19.074219 L 9.589844 19.492188 L 9.027344 19.378906 L 8.914062 18.816406 L 13.175781 14.554688 C 13.265625 14.460938 13.269531 14.3125 13.179688 14.21875 C 13.023438 14.046875 12.875 13.878906 12.734375 13.710938 C 12.46875 13.398438 12.207031 13.074219 11.964844 12.738281 L 14.640625 10.660156 C 14.886719 11.007812 15.511719 11.863281 16.085938 12.441406 C 16.632812 12.988281 17.355469 13.507812 17.742188 13.769531 Z M 15.667969 16.441406 "/>
        <path style=" stroke:none;fill-rule:nonzero;fill:rgb(38.823529%,19.215686%,42.745098%);fill-opacity:1;"
              d="M 15.105469 12.242188 L 14.65625 11.730469 C 14.570312 11.632812 14.425781 11.617188 14.324219 11.699219 L 13.710938 12.175781 C 13.617188 12.246094 13.589844 12.375 13.644531 12.480469 L 14.390625 13.910156 C 14.414062 13.953125 14.449219 13.992188 14.496094 14.011719 L 15.925781 14.761719 C 16.03125 14.816406 16.160156 14.789062 16.230469 14.695312 L 16.707031 14.082031 C 16.785156 13.980469 16.773438 13.835938 16.675781 13.75 L 16.160156 13.300781 C 15.785156 12.972656 15.433594 12.617188 15.105469 12.242188 Z M 16.179688 13.964844 L 15.972656 14.234375 L 14.789062 13.617188 L 14.167969 12.433594 L 14.441406 12.226562 L 14.738281 12.566406 C 15.082031 12.957031 15.449219 13.324219 15.839844 13.667969 Z M 16.179688 13.964844 "/>
    </g>
</svg>
