<svg xmlns="http://www.w3.org/2000/svg" width="20" height="20" version="1.1">
    <rect id="backgroundrect" width="100%" height="100%" x="0" y="0" fill="none" stroke="none"/>

    <g class="currentLayer" style="">
        <title>Layer 1</title>
        <g id="surface1" class="" fill="#dadada" fill-opacity="1">
            <path style="stroke: none; fill-rule: nonzero;"
                  d="M 10 11.667969 C 9.539062 11.667969 9.167969 11.292969 9.167969 10.832031 L 9.167969 5.832031 C 9.167969 5.375 9.539062 5 10 5 C 10.460938 5 10.832031 5.375 10.832031 5.832031 L 10.832031 10.832031 C 10.832031 11.292969 10.460938 11.667969 10 11.667969 Z M 10 11.667969 "
                  id="svg_1" fill="#dadada" fill-opacity="1"/>
            <path style="stroke: none; fill-rule: nonzero;"
                  d="M 7.835938 10.417969 C 7.546875 10.417969 7.265625 10.265625 7.113281 10 C 6.882812 9.601562 7.019531 9.089844 7.417969 8.863281 L 11.746094 6.363281 C 12.144531 6.128906 12.65625 6.265625 12.886719 6.667969 C 13.117188 7.066406 12.980469 7.574219 12.582031 7.804688 L 8.253906 10.304688 C 8.121094 10.378906 7.976562 10.417969 7.835938 10.417969 Z M 7.835938 10.417969 "
                  id="svg_2" fill="#dadada" fill-opacity="1"/>
            <path style="stroke: none; fill-rule: nonzero;"
                  d="M 12.164062 10.417969 C 12.023438 10.417969 11.878906 10.378906 11.75 10.304688 L 7.417969 7.804688 C 7.019531 7.574219 6.882812 7.066406 7.113281 6.667969 C 7.34375 6.265625 7.855469 6.128906 8.25 6.363281 L 12.582031 8.863281 C 12.980469 9.089844 13.117188 9.601562 12.886719 10 C 12.730469 10.265625 12.453125 10.417969 12.164062 10.417969 Z M 12.164062 10.417969 "
                  id="svg_3" fill="#dadada" fill-opacity="1"/>
            <path style="stroke: none; fill-rule: nonzero;"
                  d="M 5.578125 8.863281 L 4.664062 8.332031 L 5.578125 7.804688 C 5.976562 7.574219 6.113281 7.066406 5.886719 6.667969 C 5.652344 6.265625 5.144531 6.128906 4.746094 6.363281 L 3.832031 6.890625 L 3.832031 5.832031 C 3.832031 5.375 3.460938 5 3 5 C 2.539062 5 2.164062 5.375 2.164062 5.832031 L 2.164062 6.890625 L 1.25 6.363281 C 0.851562 6.128906 0.34375 6.265625 0.113281 6.667969 C -0.117188 7.066406 0.0195312 7.574219 0.417969 7.804688 L 1.332031 8.332031 L 0.417969 8.863281 C 0.0195312 9.089844 -0.117188 9.601562 0.113281 10 C 0.265625 10.265625 0.546875 10.417969 0.835938 10.417969 C 0.976562 10.417969 1.121094 10.378906 1.25 10.304688 L 2.164062 9.777344 L 2.164062 10.832031 C 2.164062 11.292969 2.539062 11.667969 3 11.667969 C 3.460938 11.667969 3.832031 11.292969 3.832031 10.832031 L 3.832031 9.777344 L 4.746094 10.304688 C 4.878906 10.378906 5.019531 10.417969 5.164062 10.417969 C 5.449219 10.417969 5.730469 10.265625 5.886719 10 C 6.113281 9.601562 5.976562 9.089844 5.578125 8.863281 Z M 5.578125 8.863281 "
                  id="svg_4" fill="#dadada" fill-opacity="1"/>
            <path style="stroke: none; fill-rule: nonzero;"
                  d="M 19.582031 8.863281 L 18.667969 8.332031 L 19.582031 7.804688 C 19.980469 7.574219 20.117188 7.066406 19.886719 6.667969 C 19.65625 6.265625 19.148438 6.128906 18.75 6.363281 L 17.835938 6.890625 L 17.835938 5.832031 C 17.835938 5.375 17.460938 5 17 5 C 16.539062 5 16.167969 5.375 16.167969 5.832031 L 16.167969 6.890625 L 15.253906 6.363281 C 14.855469 6.128906 14.34375 6.265625 14.113281 6.667969 C 13.886719 7.066406 14.023438 7.574219 14.421875 7.804688 L 15.335938 8.332031 L 14.421875 8.863281 C 14.019531 9.089844 13.882812 9.601562 14.113281 10 C 14.269531 10.265625 14.550781 10.417969 14.835938 10.417969 C 14.980469 10.417969 15.121094 10.378906 15.253906 10.304688 L 16.167969 9.777344 L 16.167969 10.832031 C 16.167969 11.292969 16.539062 11.667969 17 11.667969 C 17.460938 11.667969 17.835938 11.292969 17.835938 10.832031 L 17.835938 9.777344 L 18.75 10.304688 C 18.882812 10.378906 19.023438 10.417969 19.164062 10.417969 C 19.453125 10.417969 19.734375 10.265625 19.886719 10 C 20.117188 9.601562 19.980469 9.089844 19.582031 8.863281 Z M 19.582031 8.863281 "
                  id="svg_5" fill="#dadada" fill-opacity="1"/>
            <path style="stroke: none; fill-rule: nonzero;"
                  d="M 5 15 L 0.832031 15 C 0.371094 15 0 14.625 0 14.167969 C 0 13.707031 0.371094 13.332031 0.832031 13.332031 L 5 13.332031 C 5.460938 13.332031 5.832031 13.707031 5.832031 14.167969 C 5.832031 14.625 5.460938 15 5 15 Z M 5 15 "
                  id="svg_6" fill="#dadada" fill-opacity="1"/>
            <path style="stroke: none; fill-rule: nonzero;"
                  d="M 12.082031 15 L 7.917969 15 C 7.457031 15 7.082031 14.625 7.082031 14.167969 C 7.082031 13.707031 7.457031 13.332031 7.917969 13.332031 L 12.082031 13.332031 C 12.542969 13.332031 12.917969 13.707031 12.917969 14.167969 C 12.917969 14.625 12.542969 15 12.082031 15 Z M 12.082031 15 "
                  id="svg_7" fill="#dadada" fill-opacity="1"/>
            <path style="stroke: none; fill-rule: nonzero;"
                  d="M 19.167969 15 L 15 15 C 14.539062 15 14.167969 14.625 14.167969 14.167969 C 14.167969 13.707031 14.539062 13.332031 15 13.332031 L 19.167969 13.332031 C 19.628906 13.332031 20 13.707031 20 14.167969 C 20 14.625 19.628906 15 19.167969 15 Z M 19.167969 15 "
                  id="svg_8" fill="#dadada" fill-opacity="1"/>
        </g>
    </g>
</svg>