<?xml version="1.0" encoding="UTF-8"?>
<svg xmlns="http://www.w3.org/2000/svg" width="20pt" height="20pt" viewBox="0 0 20 20" version="1.1">
    <g id="surface1">
        <path style=" stroke:none;fill-rule:nonzero;fill:rgb(88.627451%,34.117647%,29.803922%);fill-opacity:1;"
              d="M 7.875 13.546875 L 7.875 12.234375 L 4.21875 13.265625 C 4.21875 13.265625 4.484375 11.703125 6.390625 11.15625 C 6.96875 11 7.46875 11 7.875 11.078125 L 7.875 5.671875 L 9.703125 5.671875 C 9.5 5.0625 9.3125 4.578125 9.15625 4.253906 C 8.890625 3.707031 8.609375 4.066406 8 4.59375 C 7.5625 4.953125 6.453125 5.75 4.78125 6.1875 C 3.113281 6.640625 1.769531 6.515625 1.207031 6.421875 C 0.410156 6.28125 -0.0117188 6.109375 0.0351562 6.71875 C 0.0664062 7.25 0.191406 8.078125 0.488281 9.1875 C 1.113281 11.5625 3.191406 16.136719 7.125 15.074219 C 8.15625 14.792969 8.890625 14.246094 9.390625 13.546875 Z M 1.988281 9.21875 L 4.78125 8.484375 C 4.78125 8.484375 4.703125 9.5625 3.660156 9.84375 C 2.613281 10.109375 1.988281 9.21875 1.988281 9.21875 Z M 1.988281 9.21875 "/>
        <path style=" stroke:none;fill-rule:nonzero;fill:rgb(93.72549%,78.039216%,36.862745%);fill-opacity:1;"
              d="M 18.449219 5.78125 C 17.699219 5.90625 15.917969 6.078125 13.714844 5.484375 C 11.515625 4.890625 10.046875 3.863281 9.46875 3.378906 C 8.640625 2.691406 8.28125 2.222656 7.9375 2.941406 C 7.625 3.582031 7.21875 4.609375 6.828125 6.0625 C 5.984375 9.203125 5.359375 15.824219 10.5625 17.214844 C 15.777344 18.605469 18.542969 12.5625 19.386719 9.421875 C 19.777344 7.96875 19.949219 6.875 19.996094 6.171875 C 20.058594 5.359375 19.511719 5.59375 18.449219 5.78125 Z M 7.984375 8.390625 C 7.984375 8.390625 8.8125 7.09375 10.21875 7.5 C 11.625 7.90625 11.734375 9.453125 11.734375 9.453125 Z M 11.390625 14.089844 C 8.9375 13.375 8.5625 11.421875 8.5625 11.421875 L 15.136719 13.25 C 15.136719 13.265625 13.808594 14.792969 11.390625 14.089844 Z M 13.761719 10.109375 C 13.761719 10.109375 14.558594 8.828125 15.902344 9.21875 C 17.246094 9.625 17.355469 11.171875 17.355469 11.171875 Z M 13.761719 10.109375 "/>
        <path style=" stroke:none;fill-rule:nonzero;fill:rgb(86.27451%,71.764706%,34.117647%);fill-opacity:1;"
              d="M 11.578125 14.136719 L 11.390625 14.089844 C 8.9375 13.375 8.5625 11.421875 8.5625 11.421875 L 12.03125 12.390625 L 13.808594 5.5 C 13.777344 5.484375 13.746094 5.484375 13.714844 5.484375 C 11.515625 4.890625 10.046875 3.863281 9.46875 3.378906 C 8.640625 2.691406 8.28125 2.222656 7.9375 2.941406 C 7.625 3.582031 7.21875 4.609375 6.828125 6.0625 C 6.015625 9.078125 5.40625 15.292969 9.984375 17.027344 L 10.765625 17.261719 Z M 7.984375 8.390625 C 7.984375 8.390625 8.8125 7.09375 10.21875 7.5 C 11.625 7.90625 11.734375 9.453125 11.734375 9.453125 Z M 7.984375 8.390625 "/>
        <path style=" stroke:none;fill-rule:nonzero;fill:rgb(81.568627%,31.372549%,27.45098%);fill-opacity:1;"
              d="M 6.578125 12.609375 L 4.21875 13.28125 C 4.21875 13.28125 4.46875 11.8125 6.203125 11.234375 L 4.859375 6.1875 C 4.828125 6.203125 4.796875 6.203125 4.75 6.21875 C 3.082031 6.671875 1.738281 6.546875 1.175781 6.453125 C 0.378906 6.3125 -0.0429688 6.140625 0.00390625 6.75 C 0.0351562 7.28125 0.160156 8.109375 0.457031 9.21875 C 1.113281 11.5625 3.191406 16.136719 7.125 15.074219 L 7.21875 15.042969 C 7.21875 15.042969 6.578125 12.609375 6.578125 12.609375 Z M 1.988281 9.21875 L 4.78125 8.484375 C 4.78125 8.484375 4.703125 9.5625 3.660156 9.84375 C 2.613281 10.109375 1.988281 9.21875 1.988281 9.21875 Z M 1.988281 9.21875 "/>
    </g>
</svg>
