<?xml version="1.0" encoding="UTF-8"?>
<svg xmlns="http://www.w3.org/2000/svg" width="20pt" height="20pt" viewBox="0 0 20 20" version="1.1">
    <g id="surface1">
        <path style=" stroke:none;fill-rule:nonzero;fill:rgb(0%,0%,0%);fill-opacity:1;"
              d="M 17.796875 12.476562 C 17.796875 16.621094 14.425781 19.992188 10.28125 19.992188 L 7.621094 19.992188 C 7.179688 19.992188 6.824219 19.636719 6.824219 19.195312 L 6.824219 18.929688 C 6.824219 18.488281 7.179688 18.128906 7.621094 18.128906 L 10.28125 18.128906 C 13.398438 18.128906 15.9375 15.59375 15.9375 12.476562 C 15.9375 9.359375 13.398438 6.824219 10.28125 6.824219 L 5.375 6.824219 L 8.753906 10.203125 C 9.117188 10.566406 9.117188 11.15625 8.753906 11.519531 C 8.402344 11.871094 7.789062 11.871094 7.4375 11.519531 L 2.46875 6.550781 C 2.292969 6.375 2.195312 6.140625 2.195312 5.890625 C 2.195312 5.644531 2.292969 5.410156 2.46875 5.234375 L 7.4375 0.265625 C 7.789062 -0.0898438 8.402344 -0.0898438 8.753906 0.265625 C 9.117188 0.625 9.117188 1.21875 8.753906 1.582031 L 5.375 4.960938 L 10.28125 4.960938 C 14.425781 4.960938 17.796875 8.332031 17.796875 12.476562 Z M 17.796875 12.476562 "/>
    </g>
</svg>
