<?xml version="1.0" encoding="UTF-8"?>
<svg xmlns="http://www.w3.org/2000/svg" width="20pt" height="20pt" viewBox="0 0 20 20" version="1.1">
    <g id="surface1">
        <path style=" stroke:none;fill-rule:nonzero;fill:rgb(0%,0%,0%);fill-opacity:1;"
              d="M 17.3125 3.515625 C 15.582031 1.78125 13.277344 0.828125 10.828125 0.828125 C 8.332031 0.828125 6 1.8125 4.261719 3.597656 C 4.070312 3.789062 4.074219 4.101562 4.269531 4.296875 C 4.460938 4.484375 4.773438 4.480469 4.96875 4.289062 C 6.523438 2.695312 8.601562 1.820312 10.828125 1.820312 C 15.34375 1.816406 19.011719 5.484375 19.011719 10 C 19.011719 14.515625 15.34375 18.183594 10.828125 18.183594 C 6.3125 18.183594 2.644531 14.515625 2.644531 10 L 2.644531 9.898438 L 3.457031 10.710938 C 3.550781 10.804688 3.679688 10.855469 3.808594 10.855469 C 3.933594 10.855469 4.058594 10.804688 4.15625 10.710938 C 4.351562 10.519531 4.351562 10.207031 4.15625 10.011719 L 2.503906 8.355469 C 2.308594 8.160156 1.996094 8.160156 1.804688 8.355469 L 0.144531 10.011719 C -0.046875 10.207031 -0.046875 10.519531 0.144531 10.710938 C 0.238281 10.804688 0.367188 10.855469 0.496094 10.855469 C 0.621094 10.855469 0.746094 10.804688 0.84375 10.710938 L 1.660156 9.898438 L 1.660156 10 C 1.660156 12.449219 2.613281 14.753906 4.347656 16.484375 C 6.078125 18.21875 8.382812 19.171875 10.832031 19.171875 C 13.28125 19.171875 15.585938 18.21875 17.316406 16.484375 C 19.050781 14.753906 20 12.449219 20 10 C 20 7.550781 19.046875 5.246094 17.3125 3.515625 Z M 17.3125 3.515625 "/>
        <path style=" stroke:none;fill-rule:nonzero;fill:rgb(0%,0%,0%);fill-opacity:1;"
              d="M 10.828125 4.667969 C 9.222656 4.667969 7.917969 5.972656 7.917969 7.578125 L 7.917969 8.980469 L 7.011719 8.980469 C 6.742188 8.980469 6.519531 9.203125 6.519531 9.472656 L 6.519531 14.398438 C 6.519531 14.671875 6.742188 14.894531 7.011719 14.894531 L 14.644531 14.894531 C 14.917969 14.894531 15.140625 14.671875 15.140625 14.398438 L 15.140625 9.476562 C 15.140625 9.207031 14.917969 8.984375 14.644531 8.984375 L 13.742188 8.984375 L 13.742188 7.582031 C 13.742188 5.976562 12.433594 4.667969 10.828125 4.667969 Z M 8.90625 7.582031 C 8.90625 6.519531 9.769531 5.660156 10.828125 5.660156 C 11.886719 5.660156 12.75 6.523438 12.75 7.582031 L 12.75 8.984375 L 8.90625 8.984375 Z M 14.152344 13.90625 L 7.507812 13.90625 L 7.507812 9.96875 L 14.152344 9.96875 Z M 14.152344 13.90625 "/>
    </g>
</svg>
