<?xml version="1.0" encoding="UTF-8"?>
<svg xmlns="http://www.w3.org/2000/svg" width="20pt" height="20pt" viewBox="0 0 20 20" version="1.1">
    <g id="surface1">
        <path style=" stroke:none;fill-rule:nonzero;fill:rgb(0%,0%,0%);fill-opacity:1;"
              d="M 4.582031 3.964844 C 7.535156 1.296875 11.953125 1.253906 14.945312 3.691406 L 12.574219 3.78125 C 12.265625 3.792969 12.03125 4.046875 12.042969 4.355469 C 12.054688 4.652344 12.300781 4.886719 12.59375 4.886719 C 12.601562 4.886719 12.605469 4.886719 12.613281 4.886719 L 16.257812 4.75 C 16.554688 4.738281 16.789062 4.496094 16.789062 4.199219 L 16.789062 4.15625 C 16.789062 4.148438 16.789062 4.144531 16.789062 4.136719 L 16.789062 4.132812 L 16.652344 0.53125 C 16.640625 0.226562 16.382812 -0.0117188 16.082031 0 C 15.773438 0.0117188 15.539062 0.265625 15.550781 0.570312 L 15.636719 2.832031 C 14.152344 1.617188 12.328125 0.914062 10.375 0.816406 C 7.957031 0.695312 5.632812 1.523438 3.839844 3.148438 C 1.375 5.382812 0.328125 8.78125 1.113281 12.015625 C 1.175781 12.269531 1.398438 12.4375 1.648438 12.4375 C 1.691406 12.4375 1.734375 12.433594 1.777344 12.421875 C 2.074219 12.347656 2.257812 12.046875 2.183594 11.753906 C 1.496094 8.910156 2.410156 5.925781 4.582031 3.964844 Z M 4.582031 3.964844 "/>
        <path style=" stroke:none;fill-rule:nonzero;fill:rgb(0%,0%,0%);fill-opacity:1;"
              d="M 18.886719 7.984375 C 18.8125 7.691406 18.515625 7.507812 18.222656 7.582031 C 17.925781 7.652344 17.742188 7.953125 17.816406 8.246094 C 18.507812 11.089844 17.589844 14.074219 15.417969 16.035156 C 13.894531 17.410156 11.984375 18.089844 10.082031 18.089844 C 8.265625 18.089844 6.449219 17.472656 4.988281 16.253906 L 7.390625 16.039062 C 7.691406 16.011719 7.917969 15.746094 7.886719 15.4375 C 7.859375 15.132812 7.59375 14.910156 7.289062 14.941406 L 3.65625 15.265625 C 3.355469 15.296875 3.128906 15.5625 3.160156 15.867188 L 3.484375 19.496094 C 3.511719 19.785156 3.75 20 4.035156 20 C 4.050781 20 4.066406 20 4.082031 19.996094 C 4.382812 19.96875 4.609375 19.703125 4.582031 19.394531 L 4.382812 17.1875 C 5.867188 18.386719 7.683594 19.085938 9.625 19.183594 C 9.78125 19.191406 9.933594 19.195312 10.085938 19.195312 C 12.335938 19.195312 14.476562 18.371094 16.160156 16.851562 C 18.625 14.617188 19.671875 11.222656 18.886719 7.984375 Z M 18.886719 7.984375 "/>
    </g>
</svg>
