<svg xmlns="http://www.w3.org/2000/svg" width="20" height="20" version="1.1" style="">
    <rect id="backgroundrect" width="100%" height="100%" x="0" y="0" fill="none" stroke="none"/>

    <g class="currentLayer" style="">
        <title>Layer 1</title>
        <g id="surface1" class="" fill="#b6b6b6" fill-opacity="1">
            <path style="stroke: none; fill-rule: nonzero;"
                  d="M18.46875,12.495116508686065 C18.191406,12.495116508686065 17.96875,12.717773508686065 17.96875,12.995116508686065 L17.96875,17.416992508686064 C17.96875,18.245116508686067 17.300781,18.913085508686066 16.476562,18.913085508686066 L2.492188,18.913085508686066 C1.6679690000000003,18.913085508686066 0.996094,18.245116508686067 0.996094,17.416992508686064 L0.996094,4.432616508686065 C0.996094,3.6044925086860657 1.6679690000000003,2.9365235086860655 2.492188,2.9365235086860655 L6.917969,2.9365235086860655 C7.191406,2.9365235086860655 7.414062,2.7138665086860656 7.414062,2.436523508686066 C7.414062,2.163085508686066 7.191406,1.9404295086860657 6.917969,1.9404295086860657 L2.492188,1.9404295086860657 C1.117188,1.9404295086860657 0,3.0576165086860656 0,4.432616508686065 L0,17.416992508686064 C0,18.791992508686064 1.117188,19.909179508686066 2.492188,19.909179508686066 L16.476562,19.909179508686066 C17.851562,19.909179508686066 18.964844,18.791992508686064 18.964844,17.416992508686064 L18.964844,12.995116508686065 C18.964844,12.717773508686065 18.742188,12.495116508686065 18.46875,12.495116508686065 zM18.46875,12.495116508686065 "
                  id="svg_1" fill="#b6b6b6" fill-opacity="1"/>
            <path style="stroke: none; fill-rule: nonzero;"
                  d="M18.769531,0.6591795086860658 C17.894531,-0.21972649131393435 16.472656,-0.21972649131393435 15.597656,0.6591795086860658 L6.707031,9.549804508686066 C6.644531,9.608398508686065 6.6015619999999995,9.686523508686065 6.578125,9.768554508686066 L5.410156,13.987304508686066 C5.363281,14.163085508686066 5.410156,14.346679508686066 5.5390619999999995,14.475585508686066 C5.664062,14.600585508686066 5.8515619999999995,14.651366508686065 6.023438,14.600585508686066 L10.242188,13.432616508686065 C10.328125,13.409179508686066 10.402344,13.366210508686066 10.464844,13.303710508686066 L19.355469,4.413085508686065 C20.230469,3.538085508686066 20.230469,2.1201165086860656 19.355469,1.2412105086860659 zM7.792969,9.874023508686065 L15.070312,2.5966795086860657 L17.417969,4.940429508686066 L10.140625,12.217773508686065 zM7.324219,10.811523508686065 L9.199219,12.686523508686065 L6.605469,13.405273508686065 zM18.648438,3.7099605086860654 L18.121094,4.237304508686066 L15.773438,1.889648508686066 L16.304688,1.3623045086860657 C16.789062,0.8740235086860657 17.578125,0.8740235086860657 18.066406,1.3623045086860657 L18.648438,1.9482425086860657 C19.136719,2.4326165086860656 19.136719,3.2216795086860657 18.648438,3.7099605086860654 zM18.648438,3.7099605086860654 "
                  id="svg_2" fill="#b6b6b6" fill-opacity="1"/>
        </g>
    </g>
</svg>