<?xml version="1.0" encoding="UTF-8"?>
<svg xmlns="http://www.w3.org/2000/svg" width="20pt" height="20pt" viewBox="0 0 20 20" version="1.1">
    <g id="surface1">
        <path style=" stroke:none;fill-rule:nonzero;fill:rgb(14.509804%,71.764706%,82.745098%);fill-opacity:1;"
              d="M 20 10 C 20 4.476562 15.523438 0 10 0 C 4.476562 0 0 4.476562 0 10 C 0 15.523438 4.476562 20 10 20 C 15.523438 20 20 15.523438 20 10 Z M 20 10 "/>
        <path style=" stroke:none;fill-rule:nonzero;fill:rgb(100%,100%,100%);fill-opacity:1;"
              d="M 5.570312 6.996094 C 5.570312 6.4375 5.75 5.867188 6.113281 5.292969 C 6.472656 4.714844 6.996094 4.238281 7.6875 3.863281 C 8.378906 3.484375 9.183594 3.296875 10.105469 3.296875 C 10.960938 3.296875 11.71875 3.453125 12.375 3.769531 C 13.027344 4.085938 13.535156 4.515625 13.894531 5.058594 C 14.25 5.601562 14.429688 6.191406 14.429688 6.828125 C 14.429688 7.332031 14.328125 7.769531 14.121094 8.148438 C 13.917969 8.527344 13.675781 8.851562 13.398438 9.128906 C 13.117188 9.402344 12.613281 9.863281 11.886719 10.515625 C 11.6875 10.695312 11.523438 10.859375 11.402344 10.996094 C 11.28125 11.136719 11.191406 11.261719 11.132812 11.378906 C 11.074219 11.492188 11.027344 11.609375 10.996094 11.722656 C 10.964844 11.835938 10.914062 12.039062 10.851562 12.328125 C 10.738281 12.945312 10.386719 13.25 9.796875 13.25 C 9.488281 13.25 9.230469 13.148438 9.019531 12.949219 C 8.8125 12.75 8.707031 12.449219 8.707031 12.054688 C 8.707031 11.558594 8.785156 11.128906 8.9375 10.765625 C 9.089844 10.402344 9.292969 10.085938 9.546875 9.808594 C 9.800781 9.535156 10.144531 9.207031 10.574219 8.832031 C 10.953125 8.5 11.226562 8.25 11.394531 8.082031 C 11.5625 7.914062 11.703125 7.726562 11.820312 7.519531 C 11.933594 7.3125 11.992188 7.089844 11.992188 6.847656 C 11.992188 6.375 11.816406 5.976562 11.464844 5.652344 C 11.113281 5.328125 10.660156 5.164062 10.105469 5.164062 C 9.457031 5.164062 8.976562 5.328125 8.671875 5.65625 C 8.363281 5.984375 8.105469 6.464844 7.890625 7.105469 C 7.691406 7.769531 7.308594 8.105469 6.75 8.105469 C 6.417969 8.105469 6.140625 7.988281 5.914062 7.753906 C 5.683594 7.523438 5.570312 7.269531 5.570312 6.996094 Z M 9.894531 16.703125 C 9.535156 16.703125 9.21875 16.589844 8.949219 16.355469 C 8.683594 16.121094 8.546875 15.796875 8.546875 15.375 C 8.546875 15.003906 8.675781 14.691406 8.9375 14.4375 C 9.195312 14.183594 9.515625 14.054688 9.894531 14.054688 C 10.265625 14.054688 10.578125 14.183594 10.832031 14.4375 C 11.085938 14.691406 11.214844 15.003906 11.214844 15.375 C 11.214844 15.789062 11.082031 16.113281 10.816406 16.351562 C 10.550781 16.585938 10.242188 16.703125 9.894531 16.703125 Z M 9.894531 16.703125 "/>
    </g>
</svg>
