<?xml version="1.0" encoding="UTF-8"?>
<svg xmlns="http://www.w3.org/2000/svg" width="20pt" height="20pt" viewBox="0 0 20 20" version="1.1">
    <g id="surface1">
        <path style=" stroke:none;fill-rule:nonzero;fill:rgb(0%,0%,0%);fill-opacity:1;"
              d="M 18.46875 12.570312 C 18.191406 12.570312 17.96875 12.792969 17.96875 13.070312 L 17.96875 17.492188 C 17.96875 18.320312 17.300781 18.988281 16.476562 18.988281 L 2.492188 18.988281 C 1.667969 18.988281 0.996094 18.320312 0.996094 17.492188 L 0.996094 4.507812 C 0.996094 3.679688 1.667969 3.011719 2.492188 3.011719 L 6.917969 3.011719 C 7.191406 3.011719 7.414062 2.789062 7.414062 2.511719 C 7.414062 2.238281 7.191406 2.015625 6.917969 2.015625 L 2.492188 2.015625 C 1.117188 2.015625 0 3.132812 0 4.507812 L 0 17.492188 C 0 18.867188 1.117188 19.984375 2.492188 19.984375 L 16.476562 19.984375 C 17.851562 19.984375 18.964844 18.867188 18.964844 17.492188 L 18.964844 13.070312 C 18.964844 12.792969 18.742188 12.570312 18.46875 12.570312 Z M 18.46875 12.570312 "/>
        <path style=" stroke:none;fill-rule:nonzero;fill:rgb(0%,0%,0%);fill-opacity:1;"
              d="M 18.769531 0.734375 C 17.894531 -0.144531 16.472656 -0.144531 15.597656 0.734375 L 6.707031 9.625 C 6.644531 9.683594 6.601562 9.761719 6.578125 9.84375 L 5.410156 14.0625 C 5.363281 14.238281 5.410156 14.421875 5.539062 14.550781 C 5.664062 14.675781 5.851562 14.726562 6.023438 14.675781 L 10.242188 13.507812 C 10.328125 13.484375 10.402344 13.441406 10.464844 13.378906 L 19.355469 4.488281 C 20.230469 3.613281 20.230469 2.195312 19.355469 1.316406 Z M 7.792969 9.949219 L 15.070312 2.671875 L 17.417969 5.015625 L 10.140625 12.292969 Z M 7.324219 10.886719 L 9.199219 12.761719 L 6.605469 13.480469 Z M 18.648438 3.785156 L 18.121094 4.3125 L 15.773438 1.964844 L 16.304688 1.4375 C 16.789062 0.949219 17.578125 0.949219 18.066406 1.4375 L 18.648438 2.023438 C 19.136719 2.507812 19.136719 3.296875 18.648438 3.785156 Z M 18.648438 3.785156 "/>
    </g>
</svg>
