<svg xmlns="http://www.w3.org/2000/svg" enable-background="new 0 0 136 25" version="1.1" xml:space="preserve"
     width="136" height="25"><rect id="backgroundrect" width="100%" height="100%" x="0" y="0" fill="none" stroke="none"/>


    <g class="currentLayer" style=""><title>Layer 1</title>
        <path d="m40.963 11.476v3.7h3.411c0 0.788-1.252 2.327-3.111 2.327-2.25 0-3.861-2.251-3.758-4.955 0.088-2.281 1.02-4.646 3.758-4.646 1.5 0 2.586 0.937 3.263 2.437l3.787-1.725c-1.422-3.082-3.661-4.686-7.049-4.686-5.313 0-8.134 4.05-8.217 8.597-0.107 5.727 3.679 8.653 8.252 8.653 2.137 0 4.532-0.973 6.151-3.226 1.463-2.056 1.596-4.071 1.64-6.476h-8.127z"
              fill="#fff" id="svg_1"/>
        <path d="m50.543 8.035v7.538c0 3.603 2.643 5.44 6.176 5.44 3.534 0 6.176-1.838 6.176-5.44v-7.538h-4.175v6.9c0 1.492-0.279 2.547-2 2.547s-2.001-1.055-2.001-2.547v-6.9h-4.176z"
              fill="#fff" id="svg_2"/>
        <path d="m68.531 8.038h-4.156l0.02 12.64h4.268v-7.789s0.404-1.558 1.787-1.558c2.069 0 2.11 1.558 2.11 1.558v7.789h4.38v-8.358c0-2.755-1.923-4.514-4.939-4.441-1.067 0.025-2.345 0.461-3.471 1.713l1e-3 -1.554z"
              fill="#fff" id="svg_3"/>
        <polygon points="97.183 4.399 92.913 4.399 92.913 20.677 97.183 20.677" fill="#fff" id="svg_4"/>
        <path d="m122.26 8.631c-0.85-0.472-1.554-0.631-2.547-0.631-3.806 0-6.786 2.501-6.786 6.602 0 4.154 3.001 6.439 6.596 6.439 1.039 0 1.792-0.174 2.738-0.647v-3.624c-0.691 0.402-1.108 0.668-1.863 0.668-1.773 0-3.025-1.23-3.025-2.981 0-1.679 1.28-2.806 2.935-2.806 0.827 0 1.315 0.361 1.953 0.833v-3.853h-1e-3z"
              fill="#fff" id="svg_5"/>
        <path d="m127.5 4.399h-4.155l0.021 16.316h4.268v-7.791s0.403-1.56 1.786-1.56c2.069 0 2.109 1.56 2.109 1.56v7.792h4.38v-8.363c0-2.755-1.924-4.512-4.937-4.441-1.069 0.025-2.346 0.461-3.474 1.712l2e-3 -5.225z"
              fill="#fff" id="svg_6"/>
        <path d="m84.754 11.76c1.792 0.051 2.611 1.36 2.611 2.739 0 1.423-0.873 2.79-2.611 2.841-1.814 0.053-2.619-1.377-2.619-2.798 0-1.38 0.852-2.832 2.619-2.782zm2.455-7.37v4.991c-0.83-0.985-2.095-1.357-3.388-1.357-4.339 0-6.028 3.181-6.028 6.398 0 3.56 2.686 6.502 6.014 6.502 1.313 0 2.704-0.625 3.403-1.741v1.545h4.2l6e-3 -16.338h-4.207z"
              fill="#fff" id="svg_7"/>
        <path d="m84.754 11.762c1.789 0.051 2.606 1.358 2.606 2.736 0 1.42-0.869 2.786-2.606 2.837-1.813 0.055-2.616-1.375-2.616-2.795 0-1.378 0.851-2.83 2.616-2.778zm2.451-7.363v4.985c-0.83-0.983-2.092-1.356-3.383-1.356-4.333 0-6.021 3.178-6.021 6.391 0 3.553 2.685 6.493 6.006 6.493 1.312 0 2.7-0.624 3.397-1.737v1.541h4.191l6e-3 -16.316h-4.196v-1e-3z"
              fill="#fff" id="svg_8"/>
        <path d="m105.13 11.76c1.793 0.051 2.61 1.36 2.61 2.739 0 1.423-0.87 2.79-2.61 2.841-1.815 0.053-2.62-1.377-2.62-2.798 2e-3 -1.38 0.855-2.832 2.62-2.782zm2.46-3.737v1.357c-0.833-0.985-2.099-1.357-3.389-1.357-4.341 0-6.033 3.182-6.033 6.399 0 3.56 2.686 6.502 6.016 6.502 1.315 0 2.702-0.625 3.405-1.741v1.545h4.194l7e-3 -12.705h-4.2z"
              fill="#fff" id="svg_9"/>
        <path d="m105.13 11.766c1.788 0.05 2.606 1.357 2.606 2.734 0 1.419-0.869 2.784-2.606 2.836-1.815 0.054-2.616-1.374-2.616-2.793 1e-3 -1.379 0.854-2.828 2.616-2.777zm2.454-3.731v1.354c-0.83-0.982-2.096-1.354-3.384-1.354-4.334 0-6.022 3.174-6.022 6.387 0 3.554 2.683 6.491 6.006 6.491 1.311 0 2.699-0.622 3.398-1.737v1.541h4.191l4e-3 -12.682h-4.193z"
              fill="#fff" id="svg_10" class="selected"/>
        <polygon points="24.999 6.225 6.801 6.225 0.551 0 18.749 0" fill="#EC6C31" id="svg_11"/>
        <polygon points="6.248 17.702 0 17.702 0 1.037 6.248 7.281" fill="#EC6C31" id="svg_12"/>
        <polygon points="17.738 16.644 11.442 10.402 17.738 10.402" fill="#EC6C31" id="svg_13"/>
        <polygon points="24.999 16.644 24.999 23.944 18.749 17.702 18.749 10.402" fill="#EC6C31" id="svg_14"/>
        <polygon points="24.493 25 6.248 25 0 18.758 18.29 18.758" fill="#EC6C31" id="svg_15"/></g></svg>