<?xml version="1.0" encoding="UTF-8"?>
<svg xmlns="http://www.w3.org/2000/svg" width="20pt" height="20pt" viewBox="0 0 20 20" version="1.1">
    <g id="surface1">
        <path style=" stroke:none;fill-rule:nonzero;fill:rgb(60.784314%,78.823529%,100%);fill-opacity:1;"
              d="M 13 6 C 13 7.65625 11.65625 9 10 9 C 8.34375 9 7 7.65625 7 6 C 7 4.34375 8.34375 3 10 3 C 11.65625 3 13 4.34375 13 6 Z M 13 6 "/>
        <path style=" stroke:none;fill-rule:nonzero;fill:rgb(60.784314%,78.823529%,100%);fill-opacity:1;"
              d="M 12.332031 10.332031 L 7.667969 10.332031 C 5.457031 10.332031 3.667969 12.125 3.667969 14.332031 L 3.667969 17.300781 C 7.300781 20.457031 12.699219 20.457031 16.332031 17.300781 L 16.332031 14.332031 C 16.332031 12.125 14.542969 10.332031 12.332031 10.332031 Z M 12.332031 10.332031 "/>
        <path style=" stroke:none;fill-rule:nonzero;fill:rgb(11.764706%,50.588235%,80.784314%);fill-opacity:1;"
              d="M 10 0 C 4.476562 0 0 4.476562 0 10 C 0 15.523438 4.476562 20 10 20 C 10.300781 20 10.601562 19.988281 10.898438 19.960938 C 11.179688 19.933594 11.453125 19.898438 11.726562 19.847656 L 11.832031 19.832031 C 16.910156 18.882812 20.429688 14.222656 19.953125 9.082031 C 19.480469 3.9375 15.164062 0 10 0 Z M 9.195312 19.296875 L 9.171875 19.296875 C 8.914062 19.273438 8.65625 19.242188 8.402344 19.195312 C 8.386719 19.195312 8.371094 19.191406 8.359375 19.1875 C 8.109375 19.144531 7.863281 19.089844 7.617188 19.023438 L 7.558594 19.007812 C 7.320312 18.945312 7.085938 18.871094 6.851562 18.785156 C 6.828125 18.777344 6.804688 18.769531 6.78125 18.761719 C 6.550781 18.675781 6.328125 18.582031 6.109375 18.480469 C 6.082031 18.46875 6.054688 18.457031 6.027344 18.445312 C 5.808594 18.34375 5.597656 18.234375 5.390625 18.113281 C 5.359375 18.097656 5.332031 18.082031 5.300781 18.066406 C 5.097656 17.945312 4.898438 17.816406 4.703125 17.683594 C 4.671875 17.660156 4.644531 17.640625 4.613281 17.621094 C 4.421875 17.484375 4.234375 17.339844 4.050781 17.1875 L 4 17.144531 L 4 14.332031 C 4.003906 12.308594 5.640625 10.667969 7.667969 10.667969 L 12.332031 10.667969 C 14.359375 10.667969 15.996094 12.308594 16 14.332031 L 16 17.144531 L 15.957031 17.179688 C 15.769531 17.335938 15.578125 17.484375 15.382812 17.621094 C 15.355469 17.640625 15.328125 17.660156 15.304688 17.675781 C 15.105469 17.8125 14.902344 17.945312 14.695312 18.066406 C 14.667969 18.082031 14.640625 18.09375 14.617188 18.109375 C 14.40625 18.230469 14.191406 18.34375 13.972656 18.445312 C 13.945312 18.457031 13.921875 18.46875 13.894531 18.476562 C 13.675781 18.582031 13.449219 18.675781 13.21875 18.757812 C 13.195312 18.769531 13.171875 18.773438 13.152344 18.78125 C 12.917969 18.867188 12.683594 18.941406 12.441406 19.007812 L 12.386719 19.023438 C 12.140625 19.085938 11.894531 19.140625 11.644531 19.1875 C 11.628906 19.1875 11.617188 19.191406 11.601562 19.191406 C 11.347656 19.238281 11.089844 19.273438 10.828125 19.296875 L 10.804688 19.296875 C 10.539062 19.320312 10.273438 19.332031 10 19.332031 C 9.730469 19.332031 9.460938 19.320312 9.195312 19.296875 Z M 16.667969 16.527344 L 16.667969 14.332031 C 16.664062 11.941406 14.726562 10.003906 12.332031 10 L 7.667969 10 C 5.273438 10.003906 3.335938 11.941406 3.332031 14.332031 L 3.332031 16.527344 C -0.257812 12.863281 -0.21875 6.988281 3.421875 3.371094 C 7.0625 -0.242188 12.9375 -0.242188 16.578125 3.371094 C 20.214844 6.988281 20.257812 12.863281 16.667969 16.527344 Z M 16.667969 16.527344 "/>
        <path style=" stroke:none;fill-rule:nonzero;fill:rgb(11.764706%,50.588235%,80.784314%);fill-opacity:1;"
              d="M 10 2.667969 C 8.160156 2.667969 6.667969 4.160156 6.667969 6 C 6.667969 7.839844 8.160156 9.332031 10 9.332031 C 11.839844 9.332031 13.332031 7.839844 13.332031 6 C 13.332031 4.160156 11.839844 2.667969 10 2.667969 Z M 10 8.667969 C 8.527344 8.667969 7.332031 7.472656 7.332031 6 C 7.332031 4.527344 8.527344 3.332031 10 3.332031 C 11.472656 3.332031 12.667969 4.527344 12.667969 6 C 12.664062 7.472656 11.472656 8.664062 10 8.667969 Z M 10 8.667969 "/>
    </g>
</svg>
