<?xml version="1.0" encoding="UTF-8"?>
<svg xmlns="http://www.w3.org/2000/svg" width="20pt" height="20pt" viewBox="0 0 20 20" version="1.1">
    <g id="surface1">
        <path style=" stroke:none;fill-rule:nonzero;fill:rgb(99.215686%,78.039216%,35.686275%);fill-opacity:1;"
              d="M 19.492188 16.226562 L 19.046875 17.375 L 18.359375 17.351562 C 18.140625 17.6875 17.863281 17.972656 17.554688 18.199219 L 17.605469 18.886719 L 16.480469 19.378906 L 16.003906 18.886719 C 15.625 18.953125 15.230469 18.964844 14.835938 18.914062 L 14.390625 19.429688 L 13.242188 18.984375 L 13.265625 18.296875 C 12.933594 18.074219 12.648438 17.800781 12.417969 17.492188 L 11.730469 17.542969 L 11.234375 16.414062 L 11.433594 16.226562 L 11.730469 15.941406 C 11.660156 15.558594 11.648438 15.167969 11.699219 14.773438 L 11.1875 14.328125 L 11.632812 13.179688 L 12.316406 13.199219 C 12.539062 12.867188 12.8125 12.585938 13.125 12.351562 L 13.074219 11.667969 L 14.199219 11.171875 L 14.675781 11.667969 C 15.054688 11.59375 15.449219 11.585938 15.84375 11.636719 L 16.289062 11.125 L 17.441406 11.570312 L 17.421875 12.257812 C 17.75 12.480469 18.035156 12.75 18.265625 13.0625 L 18.953125 13.011719 L 19.449219 14.136719 L 18.949219 14.609375 C 19.019531 14.992188 19.03125 15.386719 18.980469 15.78125 Z M 17.203125 15.277344 C 17.203125 14.246094 16.375 13.414062 15.34375 13.414062 C 14.316406 13.414062 13.484375 14.246094 13.484375 15.277344 C 13.484375 16.300781 14.316406 17.136719 15.34375 17.136719 C 16.371094 17.140625 17.203125 16.304688 17.203125 15.277344 Z M 17.203125 15.277344 "/>
        <path style=" stroke:none;fill-rule:nonzero;fill:rgb(92.941176%,40%,29.803922%);fill-opacity:1;"
              d="M 14.234375 11.140625 L 14.199219 11.175781 L 13.074219 11.671875 L 13.125 12.359375 C 12.8125 12.589844 12.539062 12.871094 12.316406 13.203125 L 11.632812 13.183594 L 11.1875 14.332031 L 11.699219 14.777344 C 11.648438 15.171875 11.664062 15.558594 11.730469 15.945312 L 11.433594 16.230469 L 11.421875 16.21875 L 0.421875 16.21875 L 0.421875 15.546875 C 0.421875 12.699219 2.425781 10.292969 5.097656 9.671875 C 6.007812 10.316406 7.101562 10.695312 8.300781 10.695312 C 9.496094 10.695312 10.589844 10.320312 11.5 9.671875 C 12.546875 9.914062 13.480469 10.429688 14.234375 11.140625 Z M 14.234375 11.140625 "/>
        <path style=" stroke:none;fill-rule:nonzero;fill:rgb(92.941176%,40%,29.803922%);fill-opacity:1;"
              d="M 11.070312 1.632812 C 11.78125 2.34375 12.222656 3.324219 12.222656 4.417969 C 12.222656 5.511719 11.785156 6.496094 11.070312 7.207031 C 10.359375 7.917969 9.371094 8.359375 8.28125 8.359375 C 6.101562 8.359375 4.34375 6.601562 4.34375 4.417969 C 4.34375 3.328125 4.777344 2.34375 5.496094 1.632812 C 6.210938 0.917969 7.195312 0.480469 8.28125 0.480469 C 9.371094 0.480469 10.359375 0.917969 11.070312 1.632812 Z M 11.070312 1.632812 "/>
        <path style=" stroke:none;fill-rule:nonzero;fill:rgb(0%,0%,0%);fill-opacity:1;"
              d="M 8.28125 8.78125 C 9.453125 8.78125 10.546875 8.328125 11.371094 7.507812 C 12.191406 6.683594 12.644531 5.585938 12.644531 4.421875 C 12.644531 3.253906 12.191406 2.160156 11.371094 1.339844 C 10.546875 0.515625 9.453125 0.0625 8.28125 0.0625 C 7.113281 0.0625 6.015625 0.515625 5.195312 1.339844 C 4.371094 2.160156 3.917969 3.257812 3.917969 4.421875 C 3.917969 5.585938 4.371094 6.683594 5.195312 7.511719 C 6.015625 8.328125 7.113281 8.78125 8.28125 8.78125 Z M 5.792969 1.933594 C 6.457031 1.265625 7.335938 0.902344 8.28125 0.902344 C 9.222656 0.902344 10.109375 1.265625 10.773438 1.933594 C 11.433594 2.59375 11.796875 3.476562 11.796875 4.417969 C 11.796875 5.359375 11.433594 6.246094 10.773438 6.90625 C 10.109375 7.570312 9.226562 7.933594 8.28125 7.933594 C 7.339844 7.933594 6.457031 7.570312 5.796875 6.90625 C 5.132812 6.238281 4.765625 5.359375 4.765625 4.417969 C 4.765625 3.476562 5.128906 2.59375 5.792969 1.933594 Z M 5.792969 1.933594 "/>
        <path style=" stroke:none;fill-rule:nonzero;fill:rgb(0%,0%,0%);fill-opacity:1;"
              d="M 15.339844 12.992188 C 14.082031 12.992188 13.054688 14.019531 13.054688 15.28125 C 13.054688 16.539062 14.082031 17.5625 15.339844 17.5625 C 16.597656 17.5625 17.625 16.539062 17.625 15.28125 C 17.628906 14.019531 16.601562 12.992188 15.339844 12.992188 Z M 15.339844 16.71875 C 14.546875 16.71875 13.902344 16.074219 13.902344 15.28125 C 13.902344 14.488281 14.546875 13.839844 15.339844 13.839844 C 16.132812 13.839844 16.777344 14.484375 16.777344 15.28125 C 16.78125 16.070312 16.132812 16.71875 15.339844 16.71875 Z M 15.339844 16.71875 "/>
        <path style=" stroke:none;fill-rule:nonzero;fill:rgb(0%,0%,0%);fill-opacity:1;"
              d="M 19.402344 14.769531 L 19.949219 14.242188 L 19.214844 12.570312 L 18.453125 12.625 C 18.273438 12.410156 18.066406 12.214844 17.84375 12.042969 L 17.863281 11.285156 L 16.15625 10.628906 L 15.667969 11.199219 C 15.40625 11.179688 15.148438 11.1875 14.894531 11.214844 C 14.78125 11.085938 14.664062 10.964844 14.527344 10.835938 C 13.699219 10.058594 12.691406 9.515625 11.601562 9.261719 C 11.484375 9.234375 11.363281 9.257812 11.265625 9.328125 C 10.386719 9.945312 9.367188 10.273438 8.304688 10.273438 C 7.238281 10.273438 6.21875 9.945312 5.34375 9.328125 C 5.246094 9.257812 5.117188 9.234375 5.003906 9.261719 C 3.605469 9.585938 2.339844 10.382812 1.433594 11.511719 C 0.507812 12.648438 0 14.085938 0 15.546875 L 0 16.21875 C 0 16.449219 0.191406 16.648438 0.421875 16.648438 L 10.875 16.648438 L 11.46875 17.996094 L 12.230469 17.941406 C 12.414062 18.15625 12.617188 18.347656 12.839844 18.523438 L 12.820312 19.28125 L 14.527344 19.9375 L 15.023438 19.363281 C 15.300781 19.386719 15.585938 19.378906 15.859375 19.34375 L 16.386719 19.890625 L 18.058594 19.160156 L 18.003906 18.398438 C 18.222656 18.214844 18.414062 18.011719 18.585938 17.789062 L 19.34375 17.808594 L 20 16.101562 L 19.429688 15.609375 C 19.445312 15.324219 19.4375 15.042969 19.402344 14.769531 Z M 0.847656 15.546875 C 0.847656 14.28125 1.289062 13.035156 2.089844 12.039062 C 2.828125 11.121094 3.851562 10.453125 4.976562 10.136719 C 5.964844 10.792969 7.101562 11.136719 8.277344 11.136719 C 9.460938 11.136719 10.605469 10.789062 11.59375 10.125 C 12.265625 10.308594 12.894531 10.617188 13.453125 11.035156 L 12.628906 11.394531 L 12.683594 12.152344 C 12.46875 12.335938 12.273438 12.539062 12.101562 12.765625 L 11.34375 12.742188 L 10.683594 14.449219 L 11.261719 14.945312 C 11.238281 15.230469 11.246094 15.511719 11.28125 15.789062 L 11.28125 15.792969 L 0.847656 15.792969 Z M 18.761719 16.941406 L 18.140625 16.925781 L 18.007812 17.121094 C 17.824219 17.402344 17.585938 17.652344 17.304688 17.859375 L 17.121094 18 L 17.164062 18.617188 L 16.582031 18.875 L 16.152344 18.429688 L 15.929688 18.464844 C 15.585938 18.53125 15.234375 18.539062 14.886719 18.492188 L 14.664062 18.460938 L 14.265625 18.925781 L 13.675781 18.695312 L 13.691406 18.078125 L 13.496094 17.945312 C 13.210938 17.753906 12.960938 17.511719 12.753906 17.238281 L 12.617188 17.050781 L 11.996094 17.09375 L 11.742188 16.507812 L 12.1875 16.082031 L 12.144531 15.855469 C 12.082031 15.523438 12.074219 15.175781 12.121094 14.820312 L 12.148438 14.59375 L 11.691406 14.199219 L 11.921875 13.613281 L 12.539062 13.628906 L 12.671875 13.433594 C 12.863281 13.148438 13.097656 12.898438 13.378906 12.691406 L 13.566406 12.550781 L 13.519531 11.933594 L 14.101562 11.679688 L 14.53125 12.125 L 14.753906 12.082031 C 15.097656 12.019531 15.445312 12.011719 15.792969 12.050781 L 16.023438 12.082031 L 16.421875 11.621094 L 17.011719 11.847656 L 16.996094 12.46875 L 17.191406 12.597656 C 17.480469 12.789062 17.730469 13.03125 17.933594 13.304688 L 18.074219 13.492188 L 18.691406 13.449219 L 18.945312 14.035156 L 18.5 14.464844 L 18.542969 14.6875 C 18.605469 15.023438 18.613281 15.375 18.566406 15.726562 L 18.539062 15.949219 L 19 16.347656 Z M 18.761719 16.941406 "/>
    </g>
</svg>
